HIERARCHY
ROOT Hips
{
	OFFSET 0.00000 0.00000 0.00000
	CHANNELS 6 Xposition Yposition Zposition Zrotation Yrotation Xrotation 
	JOINT LHipJoint
	{
		OFFSET 0 0 0
		CHANNELS 3 Zrotation Yrotation Xrotation
		JOINT LeftUpLeg
		{
			OFFSET 1.48831 -1.59570 0.95625
			CHANNELS 3 Zrotation Yrotation Xrotation
			JOINT LeftLeg
			{
				OFFSET 2.20856 -6.06797 0.00000
				CHANNELS 3 Zrotation Yrotation Xrotation
				JOINT LeftFoot
				{
					OFFSET 2.62924 -7.22379 0.00000
					CHANNELS 3 Zrotation Yrotation Xrotation
					JOINT LeftToeBase
					{
						OFFSET 0.16802 -0.46163 2.41673
						CHANNELS 3 Zrotation Yrotation Xrotation
						End Site
						{
							OFFSET 0.00000 -0.00000 1.23760
						}
					}
				}
			}
		}
	}
	JOINT RHipJoint
	{
		OFFSET 0 0 0
		CHANNELS 3 Zrotation Yrotation Xrotation
		JOINT RightUpLeg
		{
			OFFSET -1.56796 -1.59570 0.95625
			CHANNELS 3 Zrotation Yrotation Xrotation
			JOINT RightLeg
			{
				OFFSET -2.29239 -6.29829 0.00000
				CHANNELS 3 Zrotation Yrotation Xrotation
				JOINT RightFoot
				{
					OFFSET -2.66963 -7.33475 0.00000
					CHANNELS 3 Zrotation Yrotation Xrotation
					JOINT RightToeBase
					{
						OFFSET -0.18185 -0.49964 2.34359
						CHANNELS 3 Zrotation Yrotation Xrotation
						End Site
						{
							OFFSET -0.00000 -0.00000 1.20477
						}
					}
				}
			}
		}
	}
	JOINT LowerBack
	{
		OFFSET 0 0 0
		CHANNELS 3 Zrotation Yrotation Xrotation
		JOINT Spine
		{
			OFFSET 0.03505 2.15832 -0.34324
			CHANNELS 3 Zrotation Yrotation Xrotation
			JOINT Spine1
			{
				OFFSET -0.01089 2.17963 0.04689
				CHANNELS 3 Zrotation Yrotation Xrotation
				JOINT Neck
				{
					OFFSET 0 0 0
					CHANNELS 3 Zrotation Yrotation Xrotation
					JOINT Neck1
					{
						OFFSET 0.04686 1.69404 0.22159
						CHANNELS 3 Zrotation Yrotation Xrotation
						JOINT Head
						{
							OFFSET 0.00265 1.69305 -0.01513
							CHANNELS 3 Zrotation Yrotation Xrotation
							End Site
							{
								OFFSET -0.00415 1.80215 -0.03034
							}
						}
					}
				}
				JOINT LeftShoulder
				{
					OFFSET 0 0 0
					CHANNELS 3 Zrotation Yrotation Xrotation
					JOINT LeftArm
					{
						OFFSET 3.67184 1.11724 -0.19002
						CHANNELS 3 Zrotation Yrotation Xrotation
						JOINT LeftForeArm
						{
							OFFSET 5.17714 -0.00000 -0.00000
							CHANNELS 3 Zrotation Yrotation Xrotation
							JOINT LeftHand
							{
								OFFSET 3.43679 -0.00000 -0.00000
								CHANNELS 3 Zrotation Yrotation Xrotation
								JOINT LeftFingerBase
								{
									OFFSET 0 0 0
									CHANNELS 3 Zrotation Yrotation Xrotation
									JOINT LeftHandIndex1
									{
										OFFSET 0.57312 -0.00000 -0.00000
										CHANNELS 3 Zrotation Yrotation Xrotation
										End Site
										{
											OFFSET 0.46206 -0.00000 -0.00000
										}
									}
								}
								JOINT LThumb
								{
									OFFSET 0 0 0
									CHANNELS 3 Zrotation Yrotation Xrotation
									End Site
									{
										OFFSET 0.46912 -0.00000 0.46912
									}
								}
							}
						}
					}
				}
				JOINT RightShoulder
				{
					OFFSET 0 0 0
					CHANNELS 3 Zrotation Yrotation Xrotation
					JOINT RightArm
					{
						OFFSET -3.59596 0.95831 -0.26050
						CHANNELS 3 Zrotation Yrotation Xrotation
						JOINT RightForeArm
						{
							OFFSET -5.23908 -0.00000 -0.00000
							CHANNELS 3 Zrotation Yrotation Xrotation
							JOINT RightHand
							{
								OFFSET -3.46485 -0.00000 -0.00000
								CHANNELS 3 Zrotation Yrotation Xrotation
								JOINT RightFingerBase
								{
									OFFSET 0 0 0
									CHANNELS 3 Zrotation Yrotation Xrotation
									JOINT RightHandIndex1
									{
										OFFSET -0.60875 -0.00000 -0.00000
										CHANNELS 3 Zrotation Yrotation Xrotation
										End Site
										{
											OFFSET -0.49079 -0.00000 -0.00000
										}
									}
								}
								JOINT RThumb
								{
									OFFSET 0 0 0
									CHANNELS 3 Zrotation Yrotation Xrotation
									End Site
									{
										OFFSET -0.49829 -0.00000 0.49829
									}
								}
							}
						}
					}
				}
			}
		}
	}
}
MOTION
Frames: 8
Frame Time: .0083333
49.5586 15.9054 17.7164 0 0 0 0 0 0 -21 0 0 0 0 0 0 0 0 0 0 0 0 0 0 21 0 0 0 0 0 0 0 0 0 0 0 0 0 0 0 0 0 0 0 0 0 0 -16 0 0 21 0 0 11 0 0 0 -8 0 0 0 0 0 0 0 0 0 0 0 0 0 0 0 0 0 0 0 0 8 0 0 0 0 0 0 0 0 0 0 0 0 0 0 0 0 0
49.5586 15.9054 17.7164 -176.8060 -17.4139 -179.8540 0.0000 0.0000 0.0000 -17.4983 6.1639 -13.4347 2.9637 10.6361 31.0623 1.5040 -2.8650 -22.4349 0.0909 1.9440 5.3509 0.0000 0.0000 0.0000 25.7638 -2.6173 -12.1436 -4.4346 -12.7173 38.3192 -3.1069 -7.7677 -36.6567 -0.0002 0.0959 -0.2635 6.5421 -0.1514 -0.8366 0.9058 -0.6790 4.5475 -2.7642 -0.1682 5.1500 4.1360 1.8349 -6.1795 -2.4291 2.0198 13.9855 -1.3208 0.9063 5.2933 -0.0000 0.0000 0.0000 -89.2974 0.5707 20.1848 15.4432 -24.7599 -3.4094 -0.0000 0.0000 -20.1907 16.5655 7.4455 2.2074 -7.1250 0.0000 -0.0000 -8.7331 37.6133 1.6026 -0.0000 0.0000 0.0000 88.6055 1.7726 26.9512 -17.7683 27.8595 -4.4404 0.0000 0.0000 1.3112 -22.0792 -7.4134 2.9960 7.1250 -0.0000 -0.0000 4.0518 -37.9442 0.7052
49.5419 15.9041 17.7120 -176.8780 -17.5817 -179.9240 0.0000 0.0000 0.0000 -17.6218 6.2166 -13.2930 2.9491 10.6121 30.9826 1.4902 -3.0264 -22.2954 0.0809 1.8342 5.0476 0.0000 0.0000 0.0000 25.6241 -2.6615 -12.2417 -4.5170 -12.8184 38.6923 -2.9585 -8.7412 -36.4160 -0.0182 0.8713 -2.3948 6.3214 -0.1972 -0.5942 0.8835 -0.6998 4.4366 -2.6623 -0.1943 4.8911 3.9517 1.8047 -5.9602 -2.1801 1.9747 13.7979 -1.2168 0.8928 5.1920 0.0000 -0.0000 0.0000 -90.0834 -0.2827 18.4839 14.7230 -23.7588 -3.1135 -0.0000 0.0000 -18.2114 16.4664 7.2590 2.1389 -7.1250 0.0000 -0.0000 -8.7879 37.4152 1.6559 0.0000 -0.0000 0.0000 88.5692 1.5725 27.0699 -17.9423 28.0833 -4.5221 0.0000 0.0000 1.3988 -21.9080 -7.2838 2.9189 7.1250 -0.0000 -0.0000 4.1842 -37.7939 0.7438
49.5260 15.9014 17.7077 -177.0020 -17.7444 -179.9940 0.0000 0.0000 0.0000 -17.7793 6.4233 -13.1671 2.9297 10.5803 30.8772 1.4686 -3.2521 -22.0838 0.0798 1.8225 5.0153 0.0000 0.0000 0.0000 25.4204 -2.6984 -12.3226 -4.6063 -12.9263 39.0931 -3.0632 -8.1785 -36.6492 -0.0060 0.4986 -1.3701 6.0575 -0.2289 -0.4151 0.8292 -0.7110 4.3924 -2.5698 -0.2125 4.7400 3.8332 1.7581 -5.7789 -1.9563 1.9041 13.5985 -1.1329 0.8687 5.0942 0.0000 -0.0000 0.0000 -89.4912 0.9755 19.9543 15.4661 -24.7915 -3.4190 -0.0000 0.0000 -19.7018 16.2837 7.4672 2.1740 -7.1250 0.0000 -0.0000 -8.9740 37.6173 1.6467 0.0000 -0.0000 0.0000 88.5815 1.4744 27.1843 -18.1032 28.2891 -4.5980 0.0000 0.0000 1.3584 -21.8716 -7.1178 2.8476 7.1250 -0.0000 -0.0000 4.1978 -37.6135 0.7648
49.5080 15.8999 17.7038 -177.0970 -17.9131 -180.0420 0.0000 0.0000 0.0000 -17.9425 6.4406 -13.0086 2.9106 10.5490 30.7733 1.4619 -3.2166 -22.0382 0.0773 1.7941 4.9369 0.0000 0.0000 0.0000 25.2399 -2.7113 -12.4364 -4.6965 -13.0336 39.4943 -3.0841 -8.1026 -36.7159 -0.0082 0.5843 -1.6055 5.8884 -0.2453 -0.4397 0.7508 -0.7292 4.4588 -2.5581 -0.2230 4.8214 3.8930 1.7390 -5.8847 -1.9496 1.8725 13.5704 -1.1417 0.8585 5.1031 0.0000 -0.0000 0.0000 -89.4548 0.6246 20.0313 15.2778 -24.5317 -3.3404 -0.0000 0.0000 -19.6732 16.5420 7.4086 2.1932 -7.1250 0.0000 -0.0000 -8.7472 37.5738 1.6138 0.0000 -0.0000 0.0000 88.6119 1.5295 27.4547 -18.2815 28.5161 -4.6828 0.0000 0.0000 1.0260 -22.1828 -7.0579 2.8681 7.1250 -0.0000 -0.0000 3.9272 -37.5695 0.7196
49.4911 15.8975 17.6998 -177.1840 -18.0764 -180.0990 0.0000 0.0000 0.0000 -18.0804 6.5204 -12.8686 2.8919 10.5180 30.6711 1.4496 -3.2961 -21.9266 0.0742 1.7570 4.8344 0.0000 0.0000 0.0000 25.0746 -2.7158 -12.5414 -4.7888 -13.1419 39.9020 -3.1052 -8.0303 -36.7851 -0.0102 0.6518 -1.7912 5.6905 -0.2682 -0.3723 0.6884 -0.7453 4.4722 -2.5124 -0.2372 4.7949 3.8865 1.7109 -5.8691 -1.8536 1.8270 13.4724 -1.1135 0.8438 5.0681 -0.0000 0.0000 0.0000 -89.3730 0.6358 20.2009 15.2771 -24.5308 -3.3402 -0.0000 0.0000 -19.7455 16.5556 7.4322 2.2021 -7.1250 0.0000 -0.0000 -8.7393 37.5990 1.6068 -0.0000 0.0000 0.0000 88.6341 1.5097 27.6490 -18.4525 28.7327 -4.7648 0.0000 0.0000 0.8685 -22.3443 -6.9539 2.8489 7.1250 -0.0000 -0.0000 3.7798 -37.4681 0.7019
49.4745 15.8949 17.6960 -177.2670 -18.2413 -180.1480 0.0000 0.0000 0.0000 -18.2121 6.5992 -12.7368 2.8727 10.4861 30.5655 1.4372 -3.3773 -21.8143 0.0709 1.7176 4.7257 0.0000 0.0000 0.0000 24.9151 -2.6989 -12.6520 -4.8837 -13.2516 40.3178 -3.1294 -7.9367 -36.8596 -0.0124 0.7197 -1.9779 5.4933 -0.2895 -0.3304 0.6255 -0.7623 4.4981 -2.4678 -0.2513 4.7961 3.9016 1.6853 -5.8759 -1.7759 1.7848 13.3841 -1.0942 0.8305 5.0403 -0.0000 0.0000 0.0000 -89.2562 0.6246 20.4154 15.2862 -24.5433 -3.3439 -0.0000 0.0000 -19.8744 16.5650 7.4669 2.2136 -7.1250 0.0000 -0.0000 -8.7369 37.6354 1.5985 -0.0000 0.0000 0.0000 88.6597 1.5078 27.8445 -18.6204 28.9442 -4.8457 0.0000 0.0000 0.7154 -22.5463 -6.8429 2.8319 7.1250 -0.0000 -0.0000 3.5977 -37.3614 0.6774
49.4582 15.8926 17.6922 -177.3440 -18.4061 -180.1910 0.0000 0.0000 0.0000 -18.3339 6.6545 -12.6124 2.8551 10.4568 30.4689 1.4254 -3.4738 -21.7045 0.0680 1.6822 4.6281 0.0000 0.0000 0.0000 24.7630 -2.6605 -12.7671 -4.9803 -13.3616 40.7375 -3.1373 -7.9259 -36.8943 -0.0178 0.8624 -2.3701 5.2939 -0.3106 -0.3007 0.5668 -0.7806 4.5274 -2.4179 -0.2660 4.8080 3.9248 1.6640 -5.8987 -1.7098 1.7485 13.3063 -1.0793 0.8197 5.0189 -0.0000 0.0000 0.0000 -89.1814 0.5109 20.5175 15.2415 -24.4815 -3.3254 -0.0000 0.0000 -19.8909 16.5753 7.4824 2.2197 -7.1250 0.0000 -0.0000 -8.7306 37.6520 1.5937 -0.0000 0.0000 0.0000 88.6790 1.5102 28.0442 -18.7844 29.1499 -4.9254 0.0000 0.0000 0.5804 -22.7736 -6.7225 2.8135 7.1250 -0.0000 -0.0000 3.3939 -37.2457 0.6485
